# xmcd CD database file
#
# Track frame offsets:
#	150
#	43505
#	89344
#	124114
#	179479
#	226377
#	289284
#
# Disc length: 4180 seconds
#
# Revision: 0
# Processed by: cddbd v1.5.2PL0 Copyright (c) Steve Scherf et al.
# Submitted via: CDex 1.51
#
DISCID=5f105207
DTITLE=Xavier Richardeau - Aube brune
DYEAR=1900
DGENRE=Jazz
TTITLE0=Song for Julie
TTITLE1=Les ailes de mon moulin
TTITLE2=Aube brune
TTITLE3=For Georges
TTITLE4=756' mouvement
TTITLE5=20, rue houdon
TTITLE6=Appel vers le large
EXTD=
EXTT0=
EXTT1=
EXTT2=
EXTT3=
EXTT4=
EXTT5=
EXTT6=
PLAYORDER=
